{"title":"The.Time.Travelers.Wife.TS.Subbed.XVID  - IMAGiNE","uid":5110373,"size":1533191980,"categoryP":"video","categoryS":"movies","magnet":"?xt=urn:btih:f0e84c3b177dc4d1d80a6155fd729dcc5bb8ad3b&amp;dn=The.Time.Travelers.Wife.TS.Subbed.XVID++-+IMAGiNE&amp;tr=udp%3A%2F%2Ftracker.openbittorrent.com%3A80&amp;tr=udp%3A%2F%2Fopen.demonii.com%3A1337&amp;tr=udp%3A%2F%2Ftracker.coppersurfer.tk%3A6969&amp;tr=udp%3A%2F%2Fexodus.desync.com%3A6969","seeders":1,"leechers":0,"uploader":"upsdave","files":-1,"time":1254693988,"description":"Ripper ...........: IMAGiNE                                      IMDB Rating.......:7.3/10  \nVideo Codec.......: XVID                                         Release Date......:03/10/2009      \nAudio Codec.......:MP3                                           Theatre Date......:14/08/2009      \nAudio Bitrate.....:128                                           Runtime.......:1h 42mn\nSubtitles.........:ESp                                        Language..........:ENGLISH\nResolution...... 640 x 432                                       IMDb URL..........:http://www.imdb.com/title/tt0452694/\n\n\n\nDETAILS:\n\nVideo\nID                               : 0\nFormat                           : MPEG-4 Visual\nFormat profile                   : AdvancedSimple@L5\nFormat settings, BVOP            : Yes\nFormat settings, QPel            : No\nFormat settings, GMC             : No warppoints\nFormat settings, Matrix          : Custom\nCodec ID                         : XVID\nCodec ID/Hint                    : XviD\nDuration                         : 1h 38mn\nBit rate                         : 1 937 Kbps\nWidth                            : 720 pixels\nHeight                           : 480 pixels\nDisplay aspect ratio             : 1.500\nFrame rate                       : 29.970 fps\nStandard                         : NTSC\nResolution                       : 24 bits\nColorimetry                      : 4:2:0\nScan type                        : Progressive\nBits/(Pixel*Frame)               : 0.187\nStream size                      : 1.33 GiB (93%)\nWriting library                  : XviD 1.2.1 (UTC 2008-12-04)\n\nAudio\nID                               : 1\nFormat                           : MPEG Audio\nFormat version                   : Version 1\nFormat profile                   : Layer 3\nCodec ID                         : 55\nCodec ID/Hint                    : MP3\nDuration                         : 1h 38mn\nBit rate mode                    : Constant\nBit rate                         : 128 Kbps\nChannel(s)                       : 2 channels\nSampling rate                    : 44.1 KHz\nResolution                       : 16 bits\nStream size                      : 90.0 MiB (6%)\nAlignment                        : Aligned on interleaves\nInterleave, duration             : 33 ms (1.00 video frame)\nInterleave, preload duration     : 417 ms","torrent":{"xt":"urn:btih:f0e84c3b177dc4d1d80a6155fd729dcc5bb8ad3b","amp;dn":"The.Time.Travelers.Wife.TS.Subbed.XVID++-+IMAGiNE","amp;tr":["udp%3A%2F%2Ftracker.openbittorrent.com%3A80","udp%3A%2F%2Fopen.demonii.com%3A1337","udp%3A%2F%2Ftracker.coppersurfer.tk%3A6969","udp%3A%2F%2Fexodus.desync.com%3A6969"],"infoHash":"f0e84c3b177dc4d1d80a6155fd729dcc5bb8ad3b","infoHashBuffer":{"type":"Buffer","data":[240,232,76,59,23,125,196,209,216,10,97,85,253,114,157,204,91,184,173,59]},"announce":[],"urlList":[]}}